<?xml version="1.0" encoding="UTF-8" standalone="no"?>
<svg
   version="1.0"
   width="784.000000pt"
   height="752.000000pt"
   viewBox="0 0 784.000000 752.000000"
   preserveAspectRatio="xMidYMid meet"
   id="svg113"
   sodipodi:docname="B91F9BE2-61A8-403A-BAC2-A15E7CF012F7.svg"
   inkscape:version="1.2 (dc2aedaf03, 2022-05-15)"
   xmlns:inkscape="http://www.inkscape.org/namespaces/inkscape"
   xmlns:sodipodi="http://sodipodi.sourceforge.net/DTD/sodipodi-0.dtd"
   xmlns="http://www.w3.org/2000/svg"
   xmlns:svg="http://www.w3.org/2000/svg">
  <defs
     id="defs117" />
  <sodipodi:namedview
     id="namedview115"
     pagecolor="#505050"
     bordercolor="#eeeeee"
     borderopacity="1"
     inkscape:showpageshadow="0"
     inkscape:pageopacity="0"
     inkscape:pagecheckerboard="0"
     inkscape:deskcolor="#505050"
     inkscape:document-units="pt"
     showgrid="false"
     inkscape:zoom="0.71010638"
     inkscape:cx="166.17229"
     inkscape:cy="501.33334"
     inkscape:window-width="2256"
     inkscape:window-height="1410"
     inkscape:window-x="2869"
     inkscape:window-y="-11"
     inkscape:window-maximized="1"
     inkscape:current-layer="svg113" />
  <g
     transform="translate(0.000000,752.000000) scale(0.100000,-0.100000)"
     fill="#000000"
     stroke="none"
     id="g111"
     style="fill:#7abd00;fill-opacity:1">
    <path
       d="M3010 7024 c-270 -57 -476 -250 -561 -524 -20 -63 -24 -96 -23 -205 0 -121 2 -137 33 -227 61 -179 67 -186 798 -918 l664 -665 659 665 c652 657 721 733 770 844 39 87 61 196 61 303 0 129 -20 213 -78 333 -40 82 -59 108 -142 190 -78 77 -112 103 -181 137 -124 61 -193 77 -335 77 -124 0 -163 -7 -275 -51 -107 -43 -168 -88 -327 -246 l-153 -151 -157 155 c-160 156 -220 200 -333 246 -130 52 -286 66 -420 37z"
       id="path81"
       style="fill:#7abd00;fill-opacity:1" />
    <path
       d="M5840 5885 c-148 -30 -261 -90 -386 -206 -50 -46 -369 -361 -709 -700 l-618 -616 678 -674 c372 -371 700 -692 729 -713 209 -159 522 -192 763 -81 419 194 575 684 342 1078 -29 50 -89 119 -196 228 -84 85 -153 160 -153 165 0 6 59 68 132 140 154 152 198 205 243 294 63 125 80 199 79 345 -1 108 -5 144 -26 211 -64 214 -232 399 -437 485 -134 56 -300 72 -441 44z"
       id="path83"
       style="fill:#7abd00;fill-opacity:1" />
    <path
       d="M1830 5856 c-291 -63 -502 -265 -582 -556 -6 -25 -12 -97 -12 -160 0 -135 24 -236 81 -340 49 -91 88 -137 237 -282 l130 -128 -160 -162 c-175 -177 -216 -237 -262 -376 -21 -65 -25 -97 -26 -207 -1 -110 3 -141 22 -205 46 -144 120 -259 232 -354 205 -176 500 -223 751 -121 131 53 173 91 854 768 l660 657 -650 646 c-357 355 -672 663 -700 684 -154 119 -392 175 -575 136z"
       id="path85"
       style="fill:#7abd00;fill-opacity:1" />
    <path
       d="M3269 3559 c-383 -387 -661 -676 -685 -712 -228 -338 -131 -792 216 -1016 168 -109 399 -139 593 -78 136 44 198 86 369 255 l158 155 157 -154 c172 -168 235 -212 368 -256 70 -24 96 -27 215 -27 151 -1 206 11 324 70 361 181 502 624 314 987 -33 64 -68 109 -157 202 -164 172 -1215 1225 -1222 1225 -3 0 -296 -293 -650 -651z"
       id="path87"
       style="fill:#7abd00;fill-opacity:1" />
    <path
       d="M2370 1250 c-19 -35 3 -60 54 -60 l43 0 7 -177 c4 -98 6 -240 5 -317 -1 -170 2 -176 87 -158 68 14 86 27 82 61 -3 22 -9 27 -43 31 l-40 5 0 315 0 315 -92 3 c-84 2 -93 1 -103 -18z"
       id="path89"
       style="fill:#7abd00;fill-opacity:1" />
    <path
       d="M3250 1255 c-20 -24 2 -63 37 -67 l28 -3 2 -314 c1 -172 4 -320 8 -328 4 -13 16 -14 56 -10 29 4 62 13 75 22 40 26 25 75 -23 75 -23 0 -23 1 -23 124 l0 125 38 31 c50 41 105 55 155 40 92 -27 112 -176 42 -312 -29 -55 -31 -80 -10 -98 19 -16 95 -7 144 18 29 14 36 23 36 47 0 27 -4 30 -32 33 -18 2 -33 6 -33 9 0 3 7 30 16 61 30 102 6 229 -53 283 -44 41 -73 52 -138 53 -47 1 -72 -5 -113 -26 l-51 -27 -3 137 -3 137 -71 3 c-55 2 -74 -1 -84 -13z"
       id="path91"
       style="fill:#7abd00;fill-opacity:1" />
    <path
       d="M4960 1255 c-20 -24 2 -63 37 -67 l28 -3 2 -310 c1 -171 4 -319 7 -329 4 -17 11 -18 57 -13 28 4 62 13 75 22 40 26 25 75 -23 75 -23 0 -23 1 -23 124 l0 125 38 31 c50 41 105 55 155 40 92 -27 112 -176 42 -312 -29 -55 -31 -80 -10 -98 19 -16 95 -7 144 18 29 14 36 23 36 47 0 27 -4 30 -32 33 -18 2 -33 6 -33 9 0 3 7 30 16 61 29 99 8 217 -50 280 -57 63 -165 76 -254 30 l-51 -27 -3 137 -3 137 -71 3 c-55 2 -74 -1 -84 -13z"
       id="path93"
       style="fill:#7abd00;fill-opacity:1" />
    <path
       d="M6920 1250 c-15 -28 3 -58 37 -62 l28 -3 5 -325 5 -325 57 2 c69 2 98 16 98 46 0 29 -18 47 -47 47 -22 0 -23 3 -23 85 0 90 9 118 57 182 39 50 131 81 169 55 15 -10 34 -47 34 -67 0 -29 -65 -85 -98 -85 -63 0 -84 -67 -27 -83 52 -16 57 -21 81 -87 13 -35 33 -72 46 -82 29 -22 106 -24 136 -2 47 32 14 90 -45 79 -30 -5 -35 -3 -40 16 -3 12 -16 42 -29 67 l-23 45 30 24 c41 35 59 74 59 128 0 91 -54 140 -155 140 -64 0 -128 -28 -170 -75 l-20 -22 -5 158 -5 159 -72 3 c-64 3 -73 1 -83 -18z"
       id="path95"
       style="fill:#7abd00;fill-opacity:1" />
    <path
       d="M411 1181 c-11 -7 -13 -64 -12 -317 2 -200 6 -313 13 -321 11 -14 46 -17 73 -7 14 6 15 24 9 176 l-7 169 144 -3 144 -3 1 -155 c0 -86 3 -163 7 -173 7 -20 71 -24 83 -5 12 18 4 621 -8 635 -12 15 -47 17 -68 3 -12 -7 -15 -31 -15 -107 l0 -98 -142 -3 -143 -3 0 99 c0 63 -4 102 -12 110 -14 14 -47 15 -67 3z"
       id="path97"
       style="fill:#7abd00;fill-opacity:1" />
    <path
       d="M2882 1168 c-7 -7 -12 -38 -12 -69 l0 -58 -37 -3 c-33 -3 -38 -7 -41 -31 -5 -38 14 -57 54 -57 l34 0 0 -205 0 -205 27 -6 c37 -10 214 31 231 53 12 17 8 49 -9 68 -6 6 -27 4 -57 -4 -26 -8 -59 -16 -74 -19 l-28 -4 0 161 0 161 58 0 c62 0 82 11 82 45 0 35 -20 45 -87 45 l-63 0 6 55 c5 38 3 59 -6 70 -15 18 -61 20 -78 3z"
       id="path99"
       style="fill:#7abd00;fill-opacity:1" />
    <path
       d="M4733 1045 c-8 -14 -16 -14 -59 -5 -94 22 -193 -8 -253 -76 -47 -54 -65 -114 -59 -197 9 -104 58 -175 148 -216 84 -38 217 -19 277 39 40 39 47 66 22 91 -25 25 -32 24 -72 -11 -89 -78 -212 -64 -259 30 -25 48 -23 131 3 181 47 93 199 107 248 23 16 -27 27 -34 50 -34 39 0 44 20 34 115 -8 69 -8 70 -40 73 -21 2 -34 -2 -40 -13z"
       id="path101"
       style="fill:#7abd00;fill-opacity:1" />
    <path
       d="M6693 1045 c-8 -14 -16 -14 -59 -5 -131 30 -265 -43 -304 -164 -17 -53 -8 -161 18 -211 42 -83 127 -134 223 -135 111 0 213 61 207 123 -2 17 -10 35 -19 40 -18 11 -29 5 -91 -45 -19 -15 -46 -23 -85 -26 -48 -3 -64 0 -92 20 -102 70 -94 250 12 299 77 34 153 20 186 -37 16 -27 27 -34 50 -34 39 0 44 20 34 115 -8 69 -8 70 -40 73 -21 2 -34 -2 -40 -13z"
       id="path103"
       style="fill:#7abd00;fill-opacity:1" />
    <path
       d="M1269 1041 c-54 -11 -122 -55 -151 -98 -37 -55 -51 -107 -46 -176 10 -151 114 -245 259 -235 135 10 258 117 187 162 -19 12 -20 11 -82 -38 -30 -23 -49 -30 -104 -33 -58 -4 -71 -2 -102 19 -33 23 -69 72 -60 81 3 3 73 19 155 37 221 47 242 59 212 123 -8 17 -18 42 -21 54 -11 34 -82 90 -131 102 -48 12 -62 12 -116 2z m132 -112 c25 -17 47 -55 37 -64 -5 -5 -273 -62 -277 -59 -9 8 31 92 53 113 47 45 132 49 187 10z"
       id="path105"
       style="fill:#7abd00;fill-opacity:1" />
    <path
       d="M1860 1029 c-90 -41 -139 -112 -148 -216 -13 -161 87 -283 233 -283 51 0 145 35 160 60 5 9 12 3 20 -17 16 -37 37 -43 99 -28 60 15 81 35 72 68 -7 30 -37 42 -66 27 -21 -11 -21 -10 -20 185 2 207 -2 225 -44 225 -28 0 -42 -10 -50 -36 -6 -21 -7 -20 -63 8 -68 34 -129 36 -193 7z m161 -84 c37 -20 87 -87 95 -131 11 -62 -34 -147 -97 -179 -40 -21 -106 -19 -144 5 -57 35 -86 123 -66 197 13 47 53 100 85 113 34 14 95 11 127 -5z"
       id="path107"
       style="fill:#7abd00;fill-opacity:1" />
    <path
       d="M5883 1040 c-52 -12 -118 -56 -145 -97 -37 -55 -51 -107 -46 -176 10 -151 114 -245 259 -235 135 10 258 117 187 162 -19 12 -20 11 -83 -39 -32 -25 -49 -30 -104 -33 -56 -3 -71 0 -101 20 -33 23 -70 72 -60 81 3 3 73 19 155 37 222 47 242 59 211 124 -9 19 -16 39 -16 45 0 6 -19 31 -43 55 -58 57 -129 76 -214 56z m138 -111 c25 -17 47 -55 37 -64 -6 -6 -273 -63 -277 -59 -2 2 4 24 13 49 18 45 62 88 101 98 34 9 96 -3 126 -24z"
       id="path109"
       style="fill:#7abd00;fill-opacity:1" />
  </g>
</svg>
